<?xml version="1.0" encoding="UTF-8"?>
<svg fill="#00BCEA" id="Capa_1" data-name="Capa 1" xmlns="http://www.w3.org/2000/svg" viewBox="0 0 24 24">
    <path d="m18.5,2h-.5v-.5C18,.67,17.33,0,16.5,0s-1.5.67-1.5,1.5v.5h-6v-.5C9,.67,8.33,0,7.5,0s-1.5.67-1.5,1.5v.5h-.5C2.47,2,0,4.47,0,7.5v11c0,3.03,2.47,5.5,5.5,5.5h13c3.03,0,5.5-2.47,5.5-5.5V7.5c0-3.03-2.47-5.5-5.5-5.5Zm0,19H5.5c-1.38,0-2.5-1.12-2.5-2.5v-9.5h18v9.5c0,1.38-1.12,2.5-2.5,2.5Zm-8.5-8.5v2c0,.83-.67,1.5-1.5,1.5h-2c-.83,0-1.5-.67-1.5-1.5v-2c0-.83.67-1.5,1.5-1.5h2c.83,0,1.5.67,1.5,1.5Z"/>
</svg>