<?xml version="1.0" encoding="UTF-8"?>
<svg fill="white" xmlns="http://www.w3.org/2000/svg" viewBox="0 0 330 139.99">
    <g id="Grupo_109" data-name="Grupo 109">
        <g id="Grupo_9" data-name="Grupo 9">
            <g id="Grupo_8" data-name="Grupo 8">
                <path id="Trazado_44" data-name="Trazado 44"
                      d="m173.32,30.04h0l-9.4-9.4c-4.34-4.34-11.37-4.34-15.71,0h0l-.98.98c-1.81,1.8-2.94,4.17-3.2,6.72-32.06.28-100.73,1.11-144.04,2.44,43.58,1.34,112.84,2.19,144.64,2.45.54,1.55,1.43,2.95,2.59,4.1l9.09,9.12c1.67,1.67,1.67,4.37,0,6.05,0,0,0,0,0,0l-.38.38c-1.66,1.67-4.35,1.68-6.02.02,0,0-.02-.02-.02-.02l-1.64-1.63c-.52-.65-1.3-1.02-2.12-1.02-1.51,0-2.73,1.22-2.73,2.73,0,.71.28,1.39.77,1.9h0s3.45,3.46,3.45,3.46c4.34,4.34,11.37,4.34,15.71,0,0,0,0,0,0,0l.98-.98c4.34-4.33,4.35-11.36.02-15.7,0,0-.01-.01-.02-.02l-9.09-9.12c-1.67-1.67-1.67-4.38,0-6.05l.38-.38c1.67-1.67,4.38-1.67,6.05,0l7.59,7.58c.51.65,1.29,1.03,2.12,1.03,1.51,0,2.73-1.23,2.73-2.74h0c0-.71-.28-1.4-.78-1.91Z"/>
                <path id="Trazado_45" data-name="Trazado 45"
                      d="m330,30.78c-43.72-1.34-113.5-2.19-144.64-2.45-.55-1.54-1.43-2.94-2.59-4.1l-9.1-9.11c-1.67-1.67-1.67-4.37,0-6.05,0,0,0,0,0,0l.38-.38c1.67-1.67,4.38-1.67,6.05,0l1.63,1.64c.52.65,1.3,1.02,2.13,1.02,1.51,0,2.74-1.22,2.74-2.74h0c0-.71-.28-1.39-.78-1.9h0l-3.45-3.46c-4.34-4.34-11.38-4.34-15.72,0l-.98.98c-4.34,4.34-4.34,11.38,0,15.72l9.1,9.12c1.66,1.67,1.66,4.38,0,6.05l-.39.38c-1.67,1.66-4.37,1.66-6.04,0l-7.58-7.58c-.52-.65-1.3-1.02-2.13-1.02-1.51,0-2.74,1.22-2.74,2.73h0c0,.71.28,1.4.78,1.9h0l9.4,9.41c4.34,4.33,11.37,4.33,15.72,0l.98-.98c1.8-1.81,2.93-4.18,3.19-6.72,31.45-.28,100.61-1.13,144.04-2.46Z"/>
            </g>
        </g>
        <g id="Grupo_10" data-name="Grupo 10">
            <path id="Trazado_46" data-name="Trazado 46"
                  d="m39.98,100.02c-.33-.57-.72-1.11-1.17-1.6-.47-.53-.97-1.03-1.5-1.5-.52-.46-1.41-1.25-2.68-2.35-1.25-1.09-2.28-2-3.04-2.71-.74-.69-1.41-1.32-1.97-1.88-.48-.46-.92-.97-1.32-1.5-.3-.4-.54-.85-.7-1.32-.14-.43-.21-.88-.21-1.33,0-.87.27-1.71.75-2.44.53-.8,1.26-1.44,2.12-1.86,1.1-.5,2.31-.74,3.52-.7.85,0,1.7.08,2.53.22,1.14.21,2.26.49,3.35.85l.25.08-.04-.26c-.11-.6-.17-1.21-.2-1.83v-.13l-.13-.02c-1.73-.36-3.49-.56-5.25-.6-1.69-.06-3.38.26-4.94.92-1.21.53-2.23,1.4-2.95,2.51-.65,1.02-1,2.2-1,3.42,0,.5.05,1,.16,1.49.1.46.25.9.44,1.32.24.48.52.93.85,1.35.43.57.9,1.11,1.4,1.62.56.58,1.16,1.14,1.76,1.66l1.74,1.46c2.02,1.68,3.44,2.94,4.21,3.72s1.37,1.45,1.79,1.96c.37.43.66.92.87,1.45.18.47.26.98.26,1.48.01,1-.28,1.98-.84,2.8-.59.84-1.42,1.48-2.38,1.84-1.11.43-2.3.64-3.49.63-2.63-.09-5.2-.76-7.54-1.97l-.27-.13.03.29c.08.65.13,1.31.13,1.96v.12l.11.04c1.36.47,2.75.85,4.17,1.12,1.06.17,2.13.26,3.2.26,1.58.02,3.15-.26,4.63-.82,1.28-.46,2.38-1.31,3.16-2.43.72-1.11,1.1-2.41,1.07-3.73,0-.61-.07-1.21-.21-1.8-.14-.58-.37-1.14-.66-1.67Z"/>
            <path id="Trazado_47" data-name="Trazado 47"
                  d="m60.09,87.88c-1.43-.63-2.98-.95-4.54-.93-2.18-.07-4.32.56-6.11,1.79-1.59,1.13-2.82,2.7-3.54,4.51-.72,1.85-1.08,3.81-1.07,5.79,0,1.51.2,3,.62,4.45.42,1.4,1.14,2.69,2.1,3.79.96,1.1,2.18,1.94,3.56,2.42,1.53.51,3.13.75,4.73.73,1,0,2.01-.07,3-.21,1.12-.17,2.22-.42,3.31-.74l.11-.03v-.11c.07-.56.16-1.11.27-1.66l.06-.29-.28.11c-2.07.85-4.28,1.32-6.52,1.38-1.24,0-2.47-.21-3.63-.63-1.11-.4-2.11-1.06-2.92-1.92-.85-.92-1.47-2.02-1.83-3.21-.41-1.29-.61-2.64-.61-4,0-.45.03-1.12.1-1.99l17.3-.02h.15v-.15c.04-.33.06-.68.06-1.03.04-1.73-.35-3.45-1.13-4.99-.69-1.35-1.81-2.42-3.19-3.06Zm-.65,1.48c.49.27.94.62,1.32,1.03.39.43.72.92.97,1.45.26.52.45,1.07.56,1.64.11.71.17,1.42.17,2.14l-15.31-.02c.14-.63.32-1.25.53-1.86.21-.55.47-1.07.78-1.57.36-.57.79-1.08,1.29-1.52.51-.46,1.08-.85,1.69-1.15.64-.31,1.32-.55,2.02-.71,1.4-.33,2.85-.34,4.25-.04.6.13,1.17.34,1.71.63h0Z"/>
            <path id="Trazado_48" data-name="Trazado 48"
                  d="m81.83,86.95c-1.89-.01-3.77.25-5.58.78-1.7.51-3.26,1.39-4.57,2.58-1.36,1.26-2.4,2.83-3.05,4.57-.71,1.84-1.07,3.79-1.07,5.77,0,1.43.24,2.86.72,4.21.43,1.26,1.16,2.39,2.12,3.29.91.84,2,1.46,3.19,1.82,1.25.37,2.55.55,3.85.54.84,0,1.68-.08,2.5-.25.76-.15,1.49-.38,2.2-.68.62-.27,1.21-.6,1.77-.99.5-.35.96-.77,1.36-1.24.35-.4.66-.84.91-1.31.13-.25.27-.55.43-.91-.05,1.95-.12,3.74-.21,5.33-.04,1.06-.16,2.11-.36,3.15-.15.85-.45,1.66-.87,2.41-.36.58-.83,1.08-1.38,1.47-.75.52-1.58.91-2.46,1.14-1.12.33-2.27.49-3.43.48-1.16,0-2.31-.1-3.46-.28-1.62-.27-3.21-.65-4.78-1.12l-.24-.07.03.25c.07.54.12,1.12.15,1.73v.12s.13.03.13.03c1.31.32,2.63.56,3.96.72,1.16.13,2.33.19,3.5.19,1.48.02,2.96-.15,4.4-.49,1.06-.24,2.07-.65,3-1.21.77-.49,1.45-1.13,1.98-1.87.53-.76.93-1.6,1.17-2.5.26-.97.4-1.97.45-2.97l.25-9.23.49-10.09c.05-.79.09-1.41.13-1.89l.24-2.68-.15-.03c-2.42-.47-4.87-.73-7.34-.77Zm5.38,2.11l-.26,7.41c-.06,1.64-.24,3.27-.52,4.89-.2.91-.51,1.8-.92,2.64-.39.81-.89,1.57-1.49,2.24-.51.59-1.1,1.1-1.76,1.52-.6.38-1.26.66-1.95.83-.95.24-1.93.35-2.91.35-1.46.02-2.9-.34-4.19-1.03-1.24-.67-2.22-1.74-2.77-3.04-.61-1.44-.92-2.99-.9-4.56,0-1.74.33-3.47.98-5.09.58-1.54,1.53-2.91,2.74-4.01,1.11-1,2.44-1.73,3.89-2.12,1.52-.39,3.08-.58,4.65-.57.65,0,1.39.03,2.21.09,1.07.09,2.13.25,3.19.46h0Z"/>
            <path id="Trazado_49" data-name="Trazado 49"
                  d="m113.95,87.44c-.19,0-.48,0-.87-.02h-.17s0,.16,0,.16c-.02,2.34-.07,4.91-.17,7.66-.11,2.9-.25,4.92-.41,6.01-.12.94-.37,1.87-.74,2.74-.35.8-.81,1.54-1.36,2.21-.46.54-.99,1-1.59,1.38-.71.42-1.48.73-2.28.94-1.86.48-3.8.5-5.67.08-.86-.19-1.68-.54-2.41-1.04-.67-.45-1.18-1.1-1.47-1.85-.31-.9-.45-1.84-.43-2.78,0-1,.11-3.44.34-7.46.23-3.96.4-6.61.52-7.86l.02-.18h-.19c-.38.02-.66.03-.85.03s-.47,0-.85-.02h-.17s0,.16,0,.16c0,2.21-.1,5.12-.3,8.64s-.3,5.75-.3,6.65c-.01,1.08.14,2.15.47,3.17.34.98.96,1.84,1.78,2.49.87.71,1.88,1.21,2.97,1.48,1.17.29,2.37.43,3.58.42.74,0,1.48-.05,2.22-.16.74-.1,1.46-.28,2.16-.52.65-.21,1.26-.5,1.83-.87.48-.3.91-.66,1.3-1.07.31-.33.59-.69.84-1.07.18-.29.35-.6.5-.91l-.16,4.15h.18c.54-.04,1.08-.04,1.62,0h.17s0-.16,0-.16c0-.99.01-2.17.04-3.5l.09-3.32.81-15.42v-.18s-.17,0-.17,0c-.39.02-.67.02-.86.02Z"/>
            <path id="Trazado_50" data-name="Trazado 50"
                  d="m131.48,87.34v-.13l-.13-.03c-1.41-.32-2.87-.3-4.27.06-.71.16-1.4.44-2.03.81-.58.35-1.09.8-1.53,1.32-.4.51-.76,1.06-1.06,1.64l.17-3.6h-.18c-.54.04-1.08.04-1.61.01h-.17s.02,2.15.02,2.15c0,2.02-.08,5.16-.24,9.33-.16,4.19-.33,7.87-.5,10.93v.18s.17,0,.17,0c.38-.01.67-.02.88-.02s.5,0,.88.02h.17s0-.16,0-.16c0-1.53.03-3.96.08-7.2.04-2.39.14-4.55.29-6.42.07-1.03.27-2.05.59-3.03.24-.71.59-1.39,1.03-1.99.4-.56.87-1.06,1.41-1.48.47-.35.99-.62,1.54-.81.6-.19,1.23-.29,1.86-.28.85.02,1.7.15,2.52.37l.23.06-.03-.24c-.06-.49-.09-.99-.09-1.48Z"/>
            <path id="Trazado_51" data-name="Trazado 51"
                  d="m152.08,89.52c-.98-.92-2.16-1.6-3.44-1.99-1.3-.39-2.65-.58-4.01-.58-2,0-3.97.47-5.73,1.41-1.8.97-3.22,2.52-4.03,4.41-.91,2.07-1.36,4.3-1.34,6.56,0,1.33.17,2.66.52,3.94.31,1.18.83,2.3,1.55,3.29.65.89,1.45,1.66,2.38,2.26.89.58,1.88,1,2.92,1.25,1.03.24,2.09.37,3.15.37,1.47,0,2.94-.23,4.34-.69,1.38-.47,2.62-1.3,3.58-2.39,1.06-1.22,1.86-2.64,2.35-4.19.55-1.68.83-3.44.82-5.21,0-1.62-.25-3.23-.78-4.77-.45-1.39-1.24-2.65-2.28-3.67Zm1.08,8.45c0,1.55-.2,3.09-.61,4.58-.36,1.33-1.01,2.56-1.9,3.61-.8.93-1.82,1.65-2.96,2.09-1.16.42-2.39.64-3.62.63-1.09,0-2.18-.17-3.22-.51-1.07-.38-2.04-1-2.84-1.81-.89-.89-1.54-1.99-1.91-3.2-.41-1.32-.61-2.7-.6-4.09-.02-1.94.34-3.87,1.05-5.68.61-1.61,1.75-2.95,3.23-3.81,1.46-.83,3.11-1.26,4.79-1.25,1.12,0,2.23.16,3.3.48,1.06.32,2.04.88,2.85,1.65.88.86,1.51,1.94,1.84,3.12.41,1.37.61,2.79.61,4.21h0Z"/>
            <path id="Trazado_52" data-name="Trazado 52"
                  d="m163.81,89.07c.83-.29,1.71-.43,2.59-.42.75,0,1.49.07,2.23.21.86.18,1.69.44,2.49.79l.26.11-.03-.28c-.08-.62-.12-1.24-.13-1.86v-.13l-.13-.03c-3.56-.74-6.41-.65-8.28.14-.97.38-1.8,1.04-2.39,1.9-.53.75-.82,1.65-.83,2.56,0,.52.09,1.04.27,1.53.22.58.51,1.13.88,1.64.45.63.97,1.22,1.55,1.74.6.56,1.39,1.24,2.33,2.02s1.63,1.35,2.07,1.74.82.73,1.15,1.03c.27.25.52.51.75.8.18.24.34.5.48.77.13.26.24.53.3.82.07.28.1.57.1.85,0,.67-.21,1.33-.59,1.89-.42.63-1.03,1.1-1.74,1.37-1.82.59-3.77.64-5.63.17-1.12-.24-2.21-.6-3.25-1.07l-.28-.12.05.3c.09.61.15,1.23.17,1.85v.12s.12.03.12.03c.75.22,1.38.38,1.88.48s1.13.19,1.97.28c.68.08,1.37.13,2.06.13,1.3.03,2.6-.21,3.8-.72.99-.42,1.83-1.12,2.44-2,.54-.8.84-1.74.84-2.71,0-.39-.05-.79-.14-1.17-.09-.4-.23-.78-.41-1.14-.2-.41-.44-.79-.71-1.16-.28-.38-.59-.74-.92-1.08-.32-.32-.7-.68-1.14-1.08-.43-.37-1.09-.94-2.02-1.72-.9-.75-1.59-1.35-2.06-1.78s-.85-.8-1.16-1.13c-.27-.29-.51-.61-.72-.94-.17-.28-.31-.58-.4-.9-.09-.31-.13-.63-.13-.95,0-.61.2-1.21.58-1.7.45-.56,1.05-.97,1.74-1.18Z"/>
            <path id="Trazado_53" data-name="Trazado 53"
                  d="m201.5,100.02c-.33-.57-.72-1.11-1.17-1.6-.47-.53-.97-1.03-1.5-1.5-.52-.46-1.42-1.25-2.69-2.35-1.25-1.09-2.27-2-3.04-2.71-.74-.68-1.4-1.32-1.97-1.88-.48-.46-.92-.97-1.32-1.5-.3-.4-.54-.85-.7-1.32-.14-.43-.22-.88-.22-1.33,0-.87.27-1.71.75-2.43.53-.8,1.26-1.44,2.12-1.86,1.1-.5,2.31-.74,3.52-.7.85,0,1.7.08,2.54.22,1.14.21,2.26.49,3.35.85l.25.08-.04-.26c-.11-.6-.17-1.21-.19-1.83v-.13l-.13-.02c-1.73-.36-3.49-.56-5.25-.6-1.69-.06-3.38.26-4.94.92-1.21.53-2.23,1.4-2.96,2.51-.65,1.02-1,2.21-1,3.42,0,.5.05,1,.16,1.49.1.46.25.9.44,1.32.24.48.52.93.85,1.35.43.57.9,1.11,1.4,1.62.56.58,1.16,1.14,1.75,1.66l1.75,1.46c2.02,1.68,3.44,2.94,4.21,3.72s1.38,1.45,1.79,1.96c.37.43.66.92.87,1.45.18.47.27.98.26,1.48.01,1-.28,1.98-.84,2.8-.59.84-1.43,1.48-2.39,1.84-1.11.43-2.3.64-3.49.63-2.63-.09-5.2-.76-7.54-1.97l-.27-.13.03.29c.08.65.13,1.31.13,1.96v.12l.11.04c1.36.48,2.75.85,4.17,1.12,1.06.17,2.13.26,3.2.26,1.58.02,3.15-.26,4.63-.82,1.28-.46,2.38-1.31,3.16-2.43.73-1.11,1.1-2.41,1.07-3.73,0-.61-.07-1.21-.21-1.8-.15-.58-.37-1.14-.67-1.66Z"/>
            <path id="Trazado_54" data-name="Trazado 54"
                  d="m226.62,87.44c-.19,0-.48,0-.88-.02h-.17s0,.16,0,.16c-.01,2.34-.07,4.92-.17,7.66-.11,2.89-.25,4.91-.41,6.01-.12.94-.37,1.87-.74,2.74-.35.8-.81,1.54-1.37,2.21-.45.54-.99,1.01-1.59,1.38-.71.42-1.48.74-2.28.94-1.86.48-3.81.5-5.68.08-.86-.19-1.68-.54-2.41-1.04-.67-.45-1.18-1.1-1.47-1.85-.31-.89-.45-1.84-.43-2.78,0-.99.11-3.43.34-7.46s.4-6.6.52-7.86l.02-.18h-.19c-.38.02-.67.03-.85.03s-.47,0-.85-.02h-.17s0,.16,0,.16c0,2.21-.1,5.12-.29,8.64s-.3,5.76-.3,6.65c-.01,1.07.14,2.15.47,3.17.35.98.96,1.84,1.78,2.49.87.71,1.88,1.21,2.97,1.48,1.17.29,2.37.43,3.58.42.74,0,1.48-.05,2.21-.16.73-.1,1.46-.28,2.16-.51.64-.21,1.26-.5,1.83-.87.48-.3.91-.66,1.3-1.07.31-.33.59-.69.84-1.07.18-.29.35-.6.5-.91l-.16,4.16h.18c.54-.04,1.08-.04,1.62,0h.17s0-.16,0-.16c0-.99.01-2.17.04-3.5l.09-3.32.81-15.42v-.18s-.17,0-.17,0c-.38.02-.67.02-.86.02Z"/>
            <path id="Trazado_55" data-name="Trazado 55"
                  d="m241.48,84.94l.12.03.06-.11c.38-.7.99-1.77,1.82-3.18.82-1.39,1.42-2.39,1.78-2.96l.17-.26h-.31c-.36.03-.79.03-1.27.03s-.91,0-1.27-.02h-.12s-.04.11-.04.11c-.6,1.91-1.01,3.2-1.25,3.92-.26.79-.5,1.52-.71,2.23l-.08.28.28-.07c.27-.05.55-.05.82,0Z"/>
            <path id="Trazado_56" data-name="Trazado 56"
                  d="m248.13,88.47c-.84-.6-1.8-1-2.82-1.17-1.21-.24-2.44-.35-3.68-.34-1.13,0-2.25.08-3.37.23-1.32.2-2.63.49-3.92.85l-.11.03v.11c-.06.57-.14,1.14-.25,1.7l-.06.3.28-.11c.79-.33,1.61-.62,2.43-.86.78-.21,1.56-.37,2.36-.48.99-.14,1.99-.21,2.99-.21.88,0,1.75.08,2.61.24.73.12,1.43.41,2.04.83.47.32.86.75,1.13,1.25.21.43.31.9.32,1.37-.02.7-.25,1.38-.68,1.94-.49.67-1.15,1.19-1.91,1.51-.87.38-1.76.69-2.68.93-2.18.56-3.34.86-3.64.95-1.11.32-2.17.68-3.14,1.06-.82.31-1.6.71-2.32,1.2-.55.34-1.03.77-1.45,1.27-.42.51-.75,1.09-.97,1.71-.21.59-.32,1.22-.32,1.85,0,.82.18,1.63.52,2.38.37.79.92,1.47,1.61,2,.79.6,1.71,1,2.69,1.15,1.14.2,2.29.3,3.44.29.66,0,1.38-.03,2.12-.1.98-.1,1.95-.25,2.91-.45l.11-.02.02-.11c.08-.55.2-1.11.33-1.66l.07-.28-.28.09c-.96.31-1.68.52-2.18.62-.53.11-1.06.2-1.6.26-.59.07-1.17.1-1.76.1-1.05.02-2.1-.12-3.11-.42-.82-.26-1.55-.76-2.1-1.43-.55-.67-.84-1.52-.82-2.38,0-.59.11-1.17.34-1.72.23-.49.54-.92.93-1.29.55-.51,1.17-.95,1.83-1.29.93-.46,1.91-.85,2.9-1.15.55-.17,1.49-.44,2.78-.79s2.12-.58,2.46-.7.7-.24,1.12-.4c.36-.13.71-.29,1.05-.46.29-.15.56-.32.82-.51.19-.14.44-.34.76-.61-.08,1.25-.14,2.61-.19,4.13-.05,1.62-.12,3.13-.2,4.5s-.22,3.21-.43,5.46l-.02.18h.19c.37-.02.67-.03.92-.03.23,0,.54,0,.92.02h.17s0-2.01,0-2.01c0-.85.04-2.25.11-4.17.07-1.97.15-3.55.24-4.83.09-1.31.16-2.53.21-3.63.05-1.12.08-2.06.08-2.8,0-.74-.12-1.47-.35-2.16-.28-.77-.79-1.44-1.46-1.91Z"/>
            <path id="Trazado_57" data-name="Trazado 57"
                  d="m266.64,87.34v-.13l-.13-.03c-1.41-.32-2.87-.3-4.27.05-.72.16-1.4.44-2.03.81-.58.35-1.09.8-1.53,1.32-.4.51-.76,1.06-1.06,1.64l.17-3.6h-.18c-.54.04-1.08.04-1.61.01h-.18s.02,2.15.02,2.15c0,2.04-.08,5.18-.24,9.33-.17,4.31-.33,7.89-.51,10.93v.18s.17,0,.17,0c.38-.01.67-.02.88-.02.2,0,.5,0,.88.02h.17s0-.16,0-.16c0-1.54.03-3.9.08-7.2.04-2.39.14-4.55.29-6.42.07-1.03.27-2.05.59-3.03.24-.71.58-1.39,1.03-1.99.4-.56.87-1.06,1.41-1.48.47-.35.99-.62,1.54-.81.6-.19,1.22-.29,1.85-.28.85.02,1.7.15,2.52.37l.23.06-.03-.23c-.06-.49-.08-.99-.08-1.48Z"/>
            <path id="Trazado_58" data-name="Trazado 58"
                  d="m283.95,87.88c-1.43-.63-2.98-.95-4.54-.93-2.18-.07-4.32.56-6.11,1.79-1.59,1.13-2.82,2.7-3.54,4.51-.72,1.85-1.08,3.81-1.07,5.79,0,1.51.2,3,.62,4.45.42,1.4,1.14,2.69,2.1,3.79.95,1.1,2.18,1.94,3.56,2.42,1.53.51,3.13.75,4.73.73,1,0,2.01-.07,3-.21,1.12-.17,2.22-.42,3.3-.74l.1-.03v-.11c.07-.56.16-1.11.27-1.66l.06-.29-.28.11c-2.07.85-4.28,1.32-6.52,1.38-1.24,0-2.47-.21-3.63-.63-1.11-.4-2.11-1.06-2.93-1.92-.84-.92-1.47-2.02-1.83-3.21-.41-1.29-.61-2.64-.61-4,0-.45.03-1.12.1-1.99l17.3-.02h.15v-.15c.04-.34.06-.68.06-1.03.04-1.73-.35-3.45-1.13-4.99-.69-1.35-1.81-2.42-3.19-3.06Zm-.65,1.48c.49.27.94.62,1.33,1.03.4.43.73.92.98,1.45.26.52.45,1.07.56,1.63.11.71.17,1.42.17,2.14l-15.31-.02c.14-.63.32-1.25.53-1.86.21-.55.47-1.07.78-1.57.35-.57.79-1.08,1.29-1.52.51-.46,1.08-.85,1.7-1.15.64-.31,1.32-.55,2.02-.71,1.4-.33,2.85-.34,4.25-.04.6.13,1.17.35,1.71.64h0Z"/>
            <path id="Trazado_59" data-name="Trazado 59"
                  d="m299.53,87.42c-2.5,0-4.98,0-7.45-.02h-.17v.16c0,.44-.02.93-.06,1.46v.19s.17-.01.17-.01c2.66-.15,5.45-.22,8.31-.22,1.35,0,2.82.02,4.36.06-.51.7-.9,1.24-1.16,1.58l-10.5,13.78-2.75,3.49v.06c0,.63-.02,1.27-.06,1.91v.18s1.77-.02,1.77-.02h6.46c2.35,0,4.72,0,7.1.02h.17v-.16c0-.42.03-.93.09-1.5l.02-.19-.19.02c-2.29.17-5.37.26-9.17.26-1.49,0-2.89-.03-4.15-.07l14.35-18.83v-.3c0-.67.02-1.23.07-1.66l.02-.18-7.21.02Z"/>
        </g>
        <g id="Grupo_11" data-name="Grupo 11">
            <path id="Trazado_60" data-name="Trazado 60"
                  d="m31.06,128h-1.2l-5.51,11.72h1.23l2.53-5.58h4.24l2.07,5.45.05.13h1.27l-4.63-11.59-.05-.13Zm-2.48,5.2l1.79-3.81,1.46,3.81h-3.25Z"/>
            <path id="Trazado_61" data-name="Trazado 61"
                  d="m39.25,132.55c-.71-.46-1.19-1.2-1.31-2.03,0-.45.23-.88.61-1.11,1.13-.61,2.48-.63,3.63-.07l.34.13-.22-1.28-.12-.04c-.56-.17-1.14-.26-1.73-.26-.93-.03-1.86.23-2.64.74-.68.42-1.1,1.15-1.1,1.95.09,1.02.62,1.95,1.45,2.56.49.4.97.78,1.46,1.17.36.29.73.58,1.09.87.73.54,1.21,1.36,1.31,2.27.01.43-.2.84-.56,1.08-.5.3-1.07.45-1.65.42-.97-.03-1.92-.26-2.8-.68l-.34-.15.21,1.28.1.04c.82.36,1.71.54,2.6.54.94.03,1.87-.23,2.65-.74.68-.42,1.1-1.17,1.1-1.97-.08-1.07-.62-2.05-1.48-2.7-.91-.69-1.82-1.41-2.58-2.01Z"/>
            <path id="Trazado_62" data-name="Trazado 62"
                  d="m44.34,139.72h6.92v-.94h-5.86v-4.64h5.33v-.94h-5.33v-4.26h5.86v-.94h-6.92v11.72Z"/>
            <path id="Trazado_63" data-name="Trazado 63"
                  d="m57.56,134.56c-.86-.65-1.72-1.33-2.57-2.01-.71-.46-1.19-1.2-1.31-2.03-.01-.45.22-.87.6-1.11.5-.33,1.09-.49,1.69-.47.67.01,1.33.15,1.95.4l.33.13-.22-1.28-.12-.04c-.56-.17-1.15-.26-1.73-.26-.93-.03-1.85.23-2.63.74-.69.41-1.11,1.15-1.12,1.95.1,1.02.63,1.95,1.46,2.56.85.69,1.68,1.35,2.55,2.04.73.54,1.2,1.37,1.29,2.27.02.43-.19.85-.56,1.08-.49.31-1.07.45-1.65.42-.97-.03-1.93-.26-2.81-.68l-.34-.15.2,1.28.1.04c.82.35,1.71.54,2.6.54.94.03,1.86-.22,2.65-.74.69-.42,1.11-1.17,1.11-1.97-.08-1.07-.62-2.06-1.48-2.71Z"/>
            <path id="Trazado_64" data-name="Trazado 64"
                  d="m65.34,127.87c-1.56-.07-3.08.48-4.22,1.54-1.11,1.18-1.68,2.76-1.58,4.38-.06,1.56.45,3.08,1.43,4.29,1.17,1.31,2.87,2.01,4.63,1.91,1.51.08,3-.43,4.14-1.42,1.17-1.2,1.77-2.84,1.65-4.51.06-1.63-.51-3.22-1.59-4.44-1.17-1.19-2.79-1.82-4.46-1.75Zm4.98,6.34c.07,1.34-.41,2.66-1.35,3.63-.87.84-2.05,1.27-3.25,1.21-1.47.1-2.9-.47-3.9-1.55-.85-1.04-1.28-2.36-1.21-3.7-.06-1.27.33-2.52,1.11-3.53.92-1.01,2.25-1.55,3.61-1.45,1.4-.1,2.76.42,3.74,1.43.89,1.12,1.33,2.53,1.23,3.96h0Z"/>
            <path id="Trazado_65" data-name="Trazado 65"
                  d="m76.15,134.29c.95.02,1.86-.38,2.48-1.09.59-.63.91-1.46.91-2.33.01-.74-.28-1.46-.81-1.98-.59-.6-1.41-.93-2.26-.9h-3.79v11.72h1.07v-10.64h2.58c.58-.03,1.14.19,1.53.6.34.37.52.85.5,1.35.02.6-.22,1.18-.65,1.59-.56.52-1.3.78-2.06.74-.43,0-.86-.06-1.27-.16l-.53-.13,4.7,6.56.06.08h1.46l-4.11-5.43h.19Z"/>
            <path id="Trazado_66" data-name="Trazado 66"
                  d="m81.17,139.72h6.91v-.94h-5.85v-4.64h5.31v-.94h-5.31v-4.26h5.85v-.94h-6.91v11.72Z"/>
            <path id="Trazado_67" data-name="Trazado 67"
                  d="m91.98,132.55c-.71-.45-1.19-1.2-1.31-2.03,0-.45.22-.87.61-1.11,1.13-.61,2.48-.63,3.64-.07l.33.13-.21-1.28-.12-.04c-.56-.17-1.15-.26-1.73-.26-.93-.03-1.85.23-2.62.74-.69.41-1.12,1.15-1.13,1.95.1,1.02.64,1.96,1.47,2.56.85.69,1.69,1.36,2.54,2.04.73.54,1.2,1.36,1.3,2.27.02.43-.19.84-.55,1.08-.5.31-1.08.45-1.67.42-.97-.03-1.93-.26-2.81-.68l-.34-.15.22,1.28.1.04c.82.36,1.7.54,2.59.54.94.03,1.86-.22,2.64-.74.69-.42,1.11-1.17,1.11-1.97-.08-1.07-.62-2.05-1.47-2.7-.93-.7-1.8-1.38-2.58-2.01Z"/>
            <path id="Trazado_68" data-name="Trazado 68"
                  d="m105.73,128h-3.53v11.72h1.2v-6.26l.31.78.12.02c.45.06.9.1,1.36.1,1.04.05,2.07-.22,2.94-.79.83-.59,1.29-1.56,1.23-2.58.07-.87-.28-1.71-.94-2.28-.79-.53-1.74-.78-2.69-.71Zm-2.33,1.07h2.33c.66-.05,1.31.11,1.87.46.41.37.61.92.56,1.47.03.66-.27,1.29-.79,1.69-.74.59-1.94.78-3.74.51l-.22-.03v-4.09Z"/>
            <path id="Trazado_69" data-name="Trazado 69"
                  d="m114.15,134.29c.95.02,1.85-.38,2.48-1.09.59-.63.92-1.46.92-2.33,0-.74-.29-1.46-.82-1.98-.59-.6-1.41-.93-2.26-.9h-3.78v11.72h1.06v-10.64h2.58c.57-.03,1.13.19,1.54.6.33.37.51.85.5,1.35.02.6-.22,1.18-.65,1.59-.56.52-1.31.79-2.08.74-.42,0-.85-.06-1.26-.16l-.53-.13,4.7,6.56.06.08h1.44l-4.1-5.43h.19Z"/>
            <path id="Trazado_70" data-name="Trazado 70"
                  d="m124.54,127.87c-1.56-.07-3.08.48-4.22,1.54-1.11,1.18-1.68,2.76-1.59,4.38-.06,1.56.46,3.08,1.44,4.29,1.17,1.31,2.87,2.01,4.62,1.91,1.51.08,3-.43,4.14-1.42,1.17-1.19,1.78-2.84,1.66-4.51.07-1.63-.5-3.23-1.6-4.44-1.17-1.19-2.79-1.83-4.46-1.75Zm4.96,6.34c.08,1.34-.4,2.66-1.33,3.63-.87.83-2.04,1.27-3.24,1.21-1.47.1-2.91-.47-3.91-1.55-.84-1.04-1.27-2.36-1.19-3.7-.06-1.28.34-2.53,1.12-3.53.91-1.01,2.23-1.54,3.59-1.45,1.4-.1,2.77.42,3.74,1.43.89,1.12,1.32,2.54,1.22,3.96h0Z"/>
            <path id="Trazado_71" data-name="Trazado 71"
                  d="m137.47,128h-5.51v11.72h4.04c1.84.09,3.64-.61,4.94-1.92,1.06-1.13,1.63-2.62,1.6-4.17,0-1.41-.5-2.78-1.42-3.85-.88-1.13-2.23-1.78-3.66-1.78Zm3.84,5.66c.04,1.29-.4,2.54-1.23,3.52-.91,1.07-2.26,1.66-3.67,1.6h-3.39v-9.84h4.3c1.15,0,2.23.56,2.89,1.49.72.92,1.11,2.06,1.1,3.23h0Z"/>
            <path id="Trazado_72" data-name="Trazado 72"
                  d="m152.17,135.8c.08.91-.28,1.79-.97,2.39-.83.54-1.82.79-2.81.72-2.47,0-3.67-1.01-3.67-3.1v-7.8h-1.06v7.92c-.08,1.18.4,2.32,1.29,3.09,1,.71,2.22,1.06,3.45.97,1.24.07,2.47-.27,3.49-.97.92-.76,1.42-1.91,1.34-3.09v-7.92h-1.05v7.8Z"/>
            <path id="Trazado_73" data-name="Trazado 73"
                  d="m160.33,138.92c-1.16.05-2.3-.34-3.2-1.08-.67-.61-1.15-1.38-1.41-2.24-.2-.62-.3-1.27-.3-1.92-.07-1.4.46-2.76,1.45-3.74.97-.88,2.25-1.34,3.56-1.29.96,0,1.91.19,2.8.54l.28.11v-1.11l-.15-.04c-.96-.26-1.95-.4-2.94-.41-1.91-.11-3.75.76-4.89,2.3-.79,1.09-1.21,2.4-1.2,3.75-.11,1.85.67,3.63,2.11,4.8,1.21.92,2.7,1.4,4.22,1.35.48,0,.96-.05,1.44-.13.43-.09.86-.21,1.28-.36l.11-.04.23-1.1-.33.1c-.99.32-2.01.49-3.05.52Z"/>
            <path id="Trazado_74" data-name="Trazado 74"
                  d="m164.24,129.07h3.46v10.65h1.06v-10.65h3.46v-1.07h-7.97v1.07Z"/>
            <path id="Trazado_75" data-name="Trazado 75"
                  d="m178.26,127.87c-1.55-.07-3.07.48-4.21,1.54-1.11,1.18-1.68,2.76-1.58,4.38-.06,1.56.45,3.08,1.44,4.29,1.17,1.31,2.87,2.01,4.61,1.91,1.51.08,3-.43,4.14-1.42,1.18-1.19,1.78-2.84,1.65-4.51.07-1.63-.5-3.23-1.59-4.44-1.17-1.19-2.79-1.82-4.46-1.75Zm4.98,6.34c.09,1.35-.4,2.66-1.34,3.63-.87.83-2.04,1.27-3.25,1.21-1.47.1-2.9-.47-3.9-1.55-.85-1.04-1.28-2.36-1.21-3.7-.06-1.28.34-2.53,1.13-3.53.91-1.01,2.23-1.54,3.59-1.45,1.4-.1,2.77.42,3.75,1.43.89,1.12,1.33,2.53,1.23,3.96h0Z"/>
            <path id="Trazado_76" data-name="Trazado 76"
                  d="m189.15,134.29c.95.02,1.85-.38,2.48-1.09.59-.63.92-1.46.92-2.33,0-.74-.29-1.46-.82-1.98-.59-.6-1.41-.93-2.25-.9h-3.78v11.72h1.06v-10.64h2.58c.58-.03,1.14.19,1.54.6.34.37.52.85.51,1.35.01.6-.22,1.17-.65,1.59-.56.52-1.31.78-2.08.74-.43,0-.86-.06-1.27-.16l-.53-.13,4.71,6.56.06.08h1.45l-4.11-5.43h.19Z"/>
            <path id="Trazado_77" data-name="Trazado 77"
                  d="m194.29,139.72h6.92v-.94h-5.86v-4.64h5.32v-.94h-5.32v-4.26h5.86v-.94h-6.92v11.72Z"/>
            <path id="Trazado_78" data-name="Trazado 78"
                  d="m207.58,134.56c-.86-.65-1.71-1.33-2.57-2.01-.72-.45-1.2-1.2-1.31-2.03,0-.45.22-.88.61-1.11,1.13-.61,2.48-.63,3.64-.07l.34.13-.23-1.28-.12-.04c-.56-.17-1.15-.26-1.73-.26-.93-.03-1.85.23-2.63.74-.69.41-1.11,1.15-1.12,1.95.1,1.02.63,1.95,1.46,2.56.52.43,1.04.84,1.56,1.26l.97.77c.73.54,1.21,1.36,1.3,2.27.02.43-.19.84-.55,1.08-.5.31-1.08.45-1.66.42-.97-.04-1.92-.27-2.8-.68l-.34-.15.22,1.28.1.04c.82.36,1.7.54,2.59.54.94.04,1.86-.22,2.65-.74.69-.42,1.11-1.17,1.11-1.97-.08-1.07-.62-2.06-1.48-2.7Z"/>
            <path id="Trazado_79" data-name="Trazado 79"
                  d="m220.78,128h-5.5v11.72h4.04c1.84.09,3.64-.61,4.93-1.92,1.05-1.13,1.62-2.62,1.59-4.17.01-1.41-.49-2.78-1.41-3.85-.88-1.13-2.23-1.78-3.65-1.78Zm3.85,5.66c.04,1.29-.41,2.54-1.24,3.52-.91,1.07-2.26,1.66-3.66,1.6h-3.4v-9.84h4.31c1.14,0,2.22.56,2.88,1.49.73.92,1.12,2.05,1.11,3.22h0Z"/>
            <path id="Trazado_80" data-name="Trazado 80"
                  d="m227.24,139.72h6.91v-.94h-5.85v-4.64h5.31v-.94h-5.31v-4.26h5.85v-.94h-6.91v11.72Z"/>
            <path id="Trazado_81" data-name="Trazado 81"
                  d="m242.75,132.55c-.72-.45-1.2-1.19-1.32-2.03,0-.45.22-.88.61-1.11,1.13-.61,2.48-.63,3.63-.07l.33.13-.21-1.28-.12-.04c-.56-.17-1.15-.26-1.73-.26-.93-.03-1.85.23-2.63.74-.69.41-1.11,1.15-1.12,1.95.1,1.02.63,1.95,1.46,2.56.51.42,1.03.83,1.54,1.24.33.27.67.53.99.79.73.54,1.21,1.36,1.3,2.27.02.44-.2.85-.56,1.08-.49.31-1.06.45-1.64.42-.97-.03-1.93-.26-2.81-.68l-.35-.15.23,1.28.1.04c.82.36,1.7.54,2.59.54.94.03,1.86-.23,2.65-.74.68-.42,1.1-1.17,1.09-1.97-.08-1.07-.62-2.05-1.47-2.7-.81-.61-1.64-1.26-2.57-2.01Z"/>
            <path id="Trazado_82" data-name="Trazado 82"
                  d="m248.34,139.72h6.92v-.94h-5.86v-4.64h5.31v-.94h-5.31v-4.26h5.86v-.94h-6.92v11.72Z"/>
            <path id="Trazado_83" data-name="Trazado 83"
                  d="m262.93,134.11h3.08v4.33c-1,.36-2.06.55-3.12.56-1.47.08-2.9-.47-3.93-1.53-.97-1.08-1.49-2.49-1.44-3.94-.08-1.33.48-2.62,1.5-3.47,1.09-.81,2.42-1.22,3.78-1.15,1.13.01,2.25.2,3.33.54l.26.08v-1.25l-.16-.03c-.53-.11-1.09-.2-1.65-.26-.52-.06-1.04-.1-1.56-.1-1.62-.07-3.22.37-4.57,1.27-1.44,1.04-2.25,2.74-2.16,4.51-.04,1.55.5,3.06,1.5,4.25,1.29,1.41,3.14,2.17,5.05,2.06,1.39-.03,2.77-.26,4.09-.68l.14-.04v-6.2h-4.15v1.06Z"/>
            <path id="Trazado_84" data-name="Trazado 84"
                  d="m277.07,135.8c.08.91-.28,1.79-.97,2.39-.83.54-1.81.79-2.79.72-2.48,0-3.68-1.01-3.68-3.1v-7.8h-1.06v7.92c-.08,1.18.4,2.33,1.3,3.09,1,.71,2.22,1.05,3.45.97,1.24.07,2.46-.27,3.48-.97.92-.76,1.42-1.91,1.34-3.09v-7.92h-1.06v7.8Z"/>
            <path id="Trazado_85" data-name="Trazado 85"
                  d="m283.19,134.29c.95.02,1.85-.38,2.48-1.09.59-.63.92-1.46.92-2.33,0-.74-.29-1.46-.82-1.98-.59-.61-1.42-.93-2.26-.9h-3.77v11.72h1.05v-10.64h2.59c.58-.03,1.14.19,1.54.6.33.37.52.85.51,1.35.01.6-.22,1.18-.65,1.59-.56.52-1.32.79-2.08.74-.43,0-.85-.06-1.27-.16l-.53-.13,4.77,6.65h1.45l-4.11-5.43h.2Z"/>
            <path id="Trazado_86" data-name="Trazado 86"
                  d="m293.31,127.87c-1.56-.07-3.08.48-4.23,1.54-1.1,1.18-1.67,2.76-1.57,4.38-.06,1.55.45,3.08,1.43,4.29,1.17,1.31,2.87,2.02,4.62,1.91,1.51.08,3-.43,4.14-1.42,1.17-1.2,1.77-2.84,1.65-4.51.06-1.63-.51-3.22-1.59-4.44-1.17-1.19-2.79-1.82-4.46-1.75Zm4.97,6.34c.08,1.34-.41,2.66-1.34,3.63-.87.83-2.05,1.27-3.25,1.21-1.47.1-2.9-.47-3.9-1.55-.85-1.04-1.28-2.36-1.21-3.7-.06-1.27.34-2.53,1.13-3.53.91-1.01,2.25-1.55,3.61-1.45,1.39-.1,2.76.43,3.73,1.43.89,1.12,1.33,2.53,1.24,3.96h0Z"/>
            <path id="Trazado_87" data-name="Trazado 87"
                  d="m305.25,134.56c-.96-.73-1.79-1.39-2.57-2.01-.71-.45-1.19-1.2-1.31-2.03,0-.45.22-.87.6-1.11,1.13-.61,2.48-.63,3.64-.07l.34.13-.22-1.29-.12-.04c-.56-.17-1.14-.26-1.72-.26-.93-.03-1.85.23-2.64.74-.69.41-1.11,1.15-1.12,1.95.1,1.02.63,1.96,1.47,2.56.66.55,1.35,1.1,2.01,1.62l.52.41c.73.54,1.2,1.36,1.3,2.27.02.43-.19.85-.56,1.08-.49.31-1.07.45-1.65.42-.97-.03-1.93-.26-2.81-.68l-.34-.14.21,1.28.1.04c.82.36,1.71.54,2.6.54.94.04,1.87-.22,2.65-.74.69-.42,1.11-1.17,1.11-1.97-.08-1.07-.62-2.06-1.49-2.7Z"/>
        </g>
    </g>
</svg>