<?xml version="1.0" encoding="UTF-8"?>
<svg fill="#fff" xmlns="http://www.w3.org/2000/svg" viewBox="0 0 257.2 47.99">
    <g id="Grupo_8" data-name="Grupo 8">
        <path id="Trazado_44" data-name="Trazado 44"
              d="m135.08,23.42h0l-7.33-7.33c-3.38-3.38-8.86-3.38-12.25,0l-.76.77c-1.41,1.4-2.29,3.25-2.49,5.23-24.99.22-78.51.86-112.26,1.9,33.97,1.05,87.94,1.71,112.74,1.91.42,1.21,1.11,2.3,2.02,3.2l7.08,7.11c1.3,1.3,1.3,3.41,0,4.71l-.3.29c-1.29,1.3-3.39,1.31-4.69.02,0,0-.01-.01-.02-.02l-1.27-1.27c-.4-.5-1.01-.8-1.66-.8-1.18,0-2.13.95-2.13,2.13,0,.55.21,1.08.6,1.48h0l2.69,2.7c3.38,3.38,8.86,3.38,12.24,0,0,0,0,0,0,0l.76-.77c3.38-3.37,3.39-8.85.01-12.24,0,0,0,0-.01-.01l-7.09-7.11c-1.3-1.3-1.3-3.41,0-4.71l.3-.3c1.3-1.3,3.41-1.3,4.71,0l5.92,5.91c.4.51,1.01.8,1.65.8,1.18,0,2.13-.96,2.13-2.13,0-.55-.22-1.08-.61-1.48Z"/>
        <path id="Trazado_45" data-name="Trazado 45"
              d="m257.2,24c-34.07-1.05-88.46-1.7-112.73-1.91-.43-1.2-1.12-2.3-2.02-3.2l-7.09-7.1c-1.3-1.3-1.3-3.41,0-4.71,0,0,0,0,0,0l.3-.3c1.3-1.3,3.41-1.3,4.72,0l1.27,1.28c.4.51,1.01.8,1.66.8,1.18,0,2.13-.95,2.14-2.13h0c0-.55-.21-1.08-.6-1.48h0l-2.69-2.69c-3.38-3.38-8.87-3.38-12.25,0l-.76.76c-3.38,3.38-3.38,8.87,0,12.25l7.09,7.1c1.3,1.3,1.3,3.41,0,4.71l-.3.29c-1.3,1.3-3.41,1.3-4.71,0l-5.91-5.91c-.4-.51-1.01-.8-1.66-.8-1.18,0-2.13.95-2.13,2.13h0c0,.56.22,1.09.6,1.48h0l7.33,7.33c3.38,3.38,8.86,3.38,12.25,0l.77-.76c1.41-1.41,2.29-3.26,2.49-5.23,24.5-.21,78.4-.87,112.25-1.91Z"/>
    </g>
</svg>