<?xml version="1.0" encoding="UTF-8"?>
<svg fill="white" xmlns="http://www.w3.org/2000/svg" viewBox="0 0 300 300">
    <path class="cls-1"
          d="m188.6,6.36c15.12-1.81,30.93,3.36,41.98,14.02,5.54,5.46,11.01,10.99,16.52,16.47,2.2,2.13,3.8,4.97,4.09,8.07.55,4.49-1.55,9.15-5.19,11.75-3.83,2.84-9.23,3.25-13.44,1.04-2.6-1.29-4.34-3.7-6.4-5.66-2.23-2.16-4.32-4.46-6.64-6.51-5.66-4.86-14.03-6.05-20.82-3.07-3.76,1.53-6.73,4.46-9.37,7.49-4.08,4.83-5.54,11.74-3.84,17.86.92,3.47,2.84,6.63,5.37,9.13,14.4,14.4,28.83,28.76,43.21,43.18,8.01,8.06,12.44,19.21,13.7,30.45.87,9.32,0,19.1-4.12,27.59-2.63,5.62-6.29,10.74-10.7,15.07-3.14,3.07-6.15,6.3-9.68,8.92-9.1,6.91-20.48,10.61-31.84,10.49-11.4-.05-22.77-3.98-31.78-11.08-3.01-2.33-5.63-5.12-8.33-7.79-12.52-12.49-25.04-24.98-37.56-37.47-2-2.02-4.28-3.93-5.4-6.64-2.06-4.55-1.05-10.26,2.41-13.83,3.66-4,9.89-5.17,14.75-2.86,2.51,1.07,4.25,3.26,6.14,5.15,9.93,9.89,19.85,19.78,29.77,29.67,3.06,2.96,5.86,6.4,9.84,8.15,6.66,3.19,15.03,2.32,20.85-2.3,3.55-2.92,6.92-6.39,8.41-10.88,2.59-7.09.64-15.54-4.72-20.78-12.89-12.89-25.8-25.77-38.69-38.66-2.9-2.92-5.92-5.72-8.42-9.01-6.51-8.37-10.34-18.84-10.77-29.49-.54-11.81,3.12-23.75,10.17-33.17,2.92-4.02,6.61-7.36,10.09-10.86,8.2-8.04,19.07-13.16,30.4-14.44Z"/>
    <path class="cls-1"
          d="m100.27,87.94c15.87-2.5,32.77,2.82,44.28,14.22,14.74,14.67,29.46,29.36,44.18,44.05,3.02,2.92,4.52,7.37,3.7,11.54-.77,4.4-4.02,8.2-8.16,9.69-4.31,1.63-9.5.71-12.89-2.47-12.35-12.45-24.82-24.76-37.23-37.14-6.72-6.8-18.26-7.59-25.85-1.84-3.69,2.95-7.2,6.52-8.79,11.12-2.23,6.05-1.25,13.19,2.54,18.39,1.6,2.19,3.65,3.98,5.53,5.91,13.19,13.19,26.38,26.38,39.56,39.58,7.95,7.99,13.19,18.69,14.56,29.96,1.89,14.49-2.76,29.66-12.38,40.54-2.65,2.94-5.51,5.69-8.34,8.46-9.33,8.81-21.95,13.85-34.69,14.02-13.75.3-27.53-5.12-37.39-14.87-5.4-5.38-10.77-10.77-16.16-16.15-1.99-1.96-3.46-4.51-3.84-7.32-.77-4.54,1.22-9.37,4.87-12.1,3.88-3.04,9.53-3.51,13.84-1.14,2.43,1.26,4.1,3.52,6.05,5.38,2.23,2.16,4.35,4.45,6.66,6.54,5.57,4.91,13.89,6.23,20.69,3.36,3.91-1.54,6.99-4.58,9.71-7.71,4.62-5.54,5.76-13.74,2.87-20.37-1.16-2.82-3.07-5.24-5.25-7.32-13.51-13.48-26.99-27-40.5-40.49-2.06-2.05-4.12-4.13-5.81-6.51-7.41-10.59-10.92-21.91-10.57-32.54.41-12.16,4.91-24.27,13.06-33.28,2.19-2.41,4.55-4.65,6.85-6.96,7.79-7.8,18.09-12.96,28.92-14.56Z"/>
</svg>